<svg width="42" height="28" viewBox="0 0 42 28" fill="none" xmlns="http://www.w3.org/2000/svg">
<g id="Group">
<g id="Group_2">
<path id="Vector" d="M5.40959 25.997H36.6866C38.9649 26.0837 40.8673 24.3027 40.0057 21.4462C39.7166 20.4979 39.1615 19.9197 39.0054 19.7636C37.554 18.3122 35.4607 18.5782 35.1716 18.6186C35.1369 18.4047 34.7322 16.0744 32.5464 15.0278C30.91 14.2414 28.9266 14.4842 27.4637 15.6523C27.4637 15.6523 26.6541 10.3903 21.1898 10.2978C14.858 10.1937 14.1699 15.5597 14.1699 15.5597C14.1699 15.5597 12.0883 14.3107 10.0066 15.2012C7.82086 16.138 7.23105 18.769 7.23105 18.769C7.23105 18.769 2.54731 18.4105 2.02689 21.9782C1.79559 23.5684 3.06772 25.9102 5.40959 25.997Z" stroke="white" stroke-width="2.31296" stroke-miterlimit="10"/>
</g>
<g id="Group_3">
<path id="Vector_2" d="M21.1898 10.2977C21.1608 9.45352 21.1319 8.60929 21.1088 7.76505C19.4493 7.31981 18.3043 6.08237 18.2407 4.76399C18.1945 3.71159 18.8537 2.92518 18.8941 2.88471C19.5418 2.14456 20.5132 2 21.103 2C21.7969 2 23.3582 2.17925 23.7051 4.13949C23.8034 4.6946 23.7918 4.94324 23.7918 4.94324" stroke="white" stroke-width="2.31296" stroke-miterlimit="10"/>
</g>
</g>
</svg>
